<?xml version="1.0" standalone="no"?>
<!DOCTYPE svg PUBLIC "-//W3C//DTD SVG 20010904//EN"
 "http://www.w3.org/TR/2001/REC-SVG-20010904/DTD/svg10.dtd">
<svg version="1.0" xmlns="http://www.w3.org/2000/svg"
 width="380.000000pt" height="380.000000pt" viewBox="0 0 380.000000 380.000000"
 preserveAspectRatio="xMidYMid meet">

<g transform="translate(0.000000,380.000000) scale(0.100000,-0.100000)"
fill="#000000" stroke="none">
<path d="M173 3606 c3 -7 294 -379 647 -826 440 -557 638 -815 632 -823 -5 -7
-323 -405 -706 -885 -383 -480 -696 -875 -696 -877 0 -3 190 -5 423 -4 l422 0
147 187 c80 103 398 502 705 886 307 385 558 702 558 704 0 2 -292 374 -650
828 l-650 824 -419 0 c-351 0 -417 -2 -413 -14z"/>
<path d="M2772 3583 c-104 -134 -403 -546 -400 -552 8 -21 414 -560 420 -558
7 2 848 1135 848 1143 0 2 -189 4 -419 4 l-419 0 -30 -37z"/>
<path d="M2600 1228 c-102 -138 -196 -266 -208 -283 l-24 -33 268 -361 268
-361 418 0 c230 0 418 3 418 8 0 4 -110 156 -245 337 -135 182 -348 468 -473
637 -125 169 -229 307 -232 307 -3 0 -88 -113 -190 -251z"/>
</g>
</svg>
