<?xml version="1.0" standalone="no"?>
<!DOCTYPE svg PUBLIC "-//W3C//DTD SVG 20010904//EN"
 "http://www.w3.org/TR/2001/REC-SVG-20010904/DTD/svg10.dtd">
<svg version="1.0" xmlns="http://www.w3.org/2000/svg"
 width="380.000000pt" height="380.000000pt" viewBox="0 0 380.000000 380.000000"
 preserveAspectRatio="xMidYMid meet">
<metadata>
Created by potrace 1.14, written by Peter Selinger 2001-2017
</metadata>
<g transform="translate(0.000000,380.000000) scale(0.100000,-0.100000)"
fill="#000000" stroke="none">
<path d="M165 3612 c-2 -3 1 -10 8 -17 7 -6 66 -81 132 -164 66 -84 201 -255
300 -380 99 -125 243 -308 320 -406 77 -97 178 -226 225 -285 47 -59 99 -125
115 -146 35 -44 120 -152 138 -174 7 -8 22 -28 34 -44 l23 -28 -53 -67 c-52
-66 -70 -88 -97 -121 -8 -10 -28 -35 -45 -56 -23 -28 -458 -574 -669 -839 -13
-16 -74 -93 -135 -170 -61 -77 -118 -148 -127 -158 -52 -63 -284 -358 -284
-362 0 -3 190 -5 423 -5 l422 1 35 45 c19 26 40 51 45 58 6 6 44 54 85 106 92
116 102 129 115 144 6 6 42 51 80 101 39 49 78 98 88 110 10 11 33 38 50 61
18 22 46 57 62 79 17 21 71 88 120 150 50 61 102 127 117 146 46 58 71 89 143
179 39 48 81 102 95 120 14 18 30 38 35 44 6 6 44 54 85 106 41 52 77 97 80
100 3 3 21 25 40 50 19 25 37 47 40 50 28 25 102 133 94 138 -5 4 -29 34 -54
67 -44 58 -75 97 -95 119 -6 6 -24 29 -40 51 -24 33 -96 124 -248 315 -7 8
-37 47 -67 85 -30 39 -59 75 -65 82 -5 6 -21 26 -35 44 -14 18 -45 58 -70 89
-25 31 -56 72 -70 90 -14 18 -32 40 -40 50 -8 10 -26 32 -40 50 -48 63 -192
245 -214 270 -12 14 -32 41 -46 60 -14 19 -32 44 -42 55 -17 21 -83 103 -96
120 -4 6 -22 28 -40 50 l-32 40 -421 0 c-231 0 -422 -1 -424 -3z"/>
<path d="M2790 3609 c0 -4 -6 -14 -13 -21 -7 -7 -58 -74 -112 -148 -55 -74
-144 -193 -197 -265 -54 -71 -98 -135 -98 -141 0 -6 12 -27 28 -47 15 -19 35
-46 44 -59 9 -12 24 -32 33 -43 8 -11 38 -51 67 -90 28 -38 55 -71 60 -73 4
-2 8 -8 8 -14 0 -6 10 -22 23 -37 12 -15 31 -40 42 -55 11 -15 42 -56 69 -92
l49 -64 26 37 c14 21 29 43 33 48 5 6 32 42 60 80 29 39 56 75 60 80 5 6 33
44 63 85 30 41 63 86 74 100 28 37 148 198 211 286 30 42 60 81 65 87 6 7 22
28 35 47 14 19 30 42 37 50 7 8 37 49 67 90 30 41 58 80 63 85 4 6 20 26 34
45 l27 36 -429 0 c-236 0 -429 -3 -429 -7z"/>
<path d="M2780 1473 c0 -5 -12 -22 -28 -38 -15 -17 -43 -53 -62 -80 -19 -28
-99 -137 -179 -244 -130 -174 -143 -196 -132 -214 11 -17 200 -272 224 -302 4
-5 51 -68 103 -140 53 -72 103 -139 113 -150 9 -11 32 -41 50 -67 l34 -48 424
0 c337 0 423 3 417 13 -10 16 -117 161 -124 167 -3 3 -17 21 -30 40 -14 19
-28 40 -32 45 -5 6 -53 71 -108 145 -55 74 -103 140 -107 145 -5 6 -74 98
-153 205 -80 107 -167 225 -195 262 -27 37 -83 112 -124 167 -67 91 -91 116
-91 94z"/>
</g>
</svg>
